<mxfile host="Electron" modified="2023-12-26T14:51:03.859Z" agent="Mozilla/5.0 (Windows NT 10.0; Win64; x64) AppleWebKit/537.36 (KHTML, like Gecko) draw.io/22.1.2 Chrome/114.0.5735.289 Electron/25.9.4 Safari/537.36" etag="xshlXv6wEcdKGp7aAvwJ" version="22.1.2" type="device">
  <diagram name="Page-1" id="c3AZxfHFhiqUNzMSEA01">
    <mxGraphModel dx="1695" dy="1218" grid="1" gridSize="10" guides="1" tooltips="1" connect="1" arrows="1" fold="1" page="0" pageScale="1" pageWidth="850" pageHeight="1100" background="#E6E6E6" math="0" shadow="0">
      <root>
        <mxCell id="0" />
        <mxCell id="1" parent="0" />
        <mxCell id="AFC2cKUzQ8DKhsSuThv8-13" style="edgeStyle=orthogonalEdgeStyle;rounded=0;sketch=1;hachureGap=4;jiggle=2;curveFitting=1;orthogonalLoop=1;jettySize=auto;html=1;fontFamily=Architects Daughter;fontSource=https%3A%2F%2Ffonts.googleapis.com%2Fcss%3Ffamily%3DArchitects%2BDaughter;fontSize=16;" parent="1" source="AFC2cKUzQ8DKhsSuThv8-9" target="AFC2cKUzQ8DKhsSuThv8-10" edge="1">
          <mxGeometry relative="1" as="geometry">
            <Array as="points">
              <mxPoint x="150" y="60" />
              <mxPoint x="150" y="-7" />
            </Array>
          </mxGeometry>
        </mxCell>
        <mxCell id="AFC2cKUzQ8DKhsSuThv8-14" style="edgeStyle=orthogonalEdgeStyle;rounded=0;sketch=1;hachureGap=4;jiggle=2;curveFitting=1;orthogonalLoop=1;jettySize=auto;html=1;exitX=1;exitY=0.5;exitDx=0;exitDy=0;entryX=0;entryY=0.75;entryDx=0;entryDy=0;fontFamily=Architects Daughter;fontSource=https%3A%2F%2Ffonts.googleapis.com%2Fcss%3Ffamily%3DArchitects%2BDaughter;fontSize=16;" parent="1" source="AFC2cKUzQ8DKhsSuThv8-9" target="AFC2cKUzQ8DKhsSuThv8-11" edge="1">
          <mxGeometry relative="1" as="geometry" />
        </mxCell>
        <mxCell id="AFC2cKUzQ8DKhsSuThv8-9" value="String Column&amp;nbsp;&lt;br&gt;A&lt;br&gt;B&lt;br&gt;C&lt;br&gt;A&lt;br&gt;B&lt;br&gt;C" style="text;html=1;strokeColor=none;fillColor=none;align=center;verticalAlign=middle;whiteSpace=wrap;rounded=0;fontSize=20;fontFamily=Architects Daughter;" parent="1" vertex="1">
          <mxGeometry x="-40" y="18" width="100" height="150" as="geometry" />
        </mxCell>
        <mxCell id="AFC2cKUzQ8DKhsSuThv8-16" style="edgeStyle=orthogonalEdgeStyle;rounded=0;sketch=1;hachureGap=4;jiggle=2;curveFitting=1;orthogonalLoop=1;jettySize=auto;html=1;exitX=1;exitY=0.75;exitDx=0;exitDy=0;entryX=0.022;entryY=0.615;entryDx=0;entryDy=0;entryPerimeter=0;fontFamily=Architects Daughter;fontSource=https%3A%2F%2Ffonts.googleapis.com%2Fcss%3Ffamily%3DArchitects%2BDaughter;fontSize=16;" parent="1" source="AFC2cKUzQ8DKhsSuThv8-10" target="AFC2cKUzQ8DKhsSuThv8-15" edge="1">
          <mxGeometry relative="1" as="geometry" />
        </mxCell>
        <mxCell id="AFC2cKUzQ8DKhsSuThv8-10" value="Dictionary&lt;br&gt;1: A&lt;br&gt;2: B&lt;br&gt;3: C" style="text;html=1;strokeColor=none;fillColor=none;align=center;verticalAlign=middle;whiteSpace=wrap;rounded=0;fontSize=20;fontFamily=Architects Daughter;" parent="1" vertex="1">
          <mxGeometry x="220" y="-32" width="100" height="50" as="geometry" />
        </mxCell>
        <mxCell id="AFC2cKUzQ8DKhsSuThv8-22" style="edgeStyle=orthogonalEdgeStyle;rounded=0;sketch=1;hachureGap=4;jiggle=2;curveFitting=1;orthogonalLoop=1;jettySize=auto;html=1;exitX=1;exitY=0.75;exitDx=0;exitDy=0;fontFamily=Architects Daughter;fontSource=https%3A%2F%2Ffonts.googleapis.com%2Fcss%3Ffamily%3DArchitects%2BDaughter;fontSize=16;" parent="1" source="AFC2cKUzQ8DKhsSuThv8-11" edge="1">
          <mxGeometry relative="1" as="geometry">
            <mxPoint x="460" y="200" as="targetPoint" />
          </mxGeometry>
        </mxCell>
        <mxCell id="AFC2cKUzQ8DKhsSuThv8-11" value="WritableColumnVector DictionayIDs&lt;br&gt;1&lt;br&gt;2&lt;br&gt;3&lt;br&gt;1&lt;br&gt;2&lt;br&gt;3" style="text;html=1;strokeColor=none;fillColor=none;align=center;verticalAlign=middle;whiteSpace=wrap;rounded=0;fontSize=20;fontFamily=Architects Daughter;" parent="1" vertex="1">
          <mxGeometry x="230" y="160" width="100" height="51" as="geometry" />
        </mxCell>
        <mxCell id="AFC2cKUzQ8DKhsSuThv8-19" style="edgeStyle=orthogonalEdgeStyle;rounded=0;sketch=1;hachureGap=4;jiggle=2;curveFitting=1;orthogonalLoop=1;jettySize=auto;html=1;exitX=1;exitY=0.5;exitDx=0;exitDy=0;fontFamily=Architects Daughter;fontSource=https%3A%2F%2Ffonts.googleapis.com%2Fcss%3Ffamily%3DArchitects%2BDaughter;fontSize=16;" parent="1" source="AFC2cKUzQ8DKhsSuThv8-15" edge="1">
          <mxGeometry relative="1" as="geometry">
            <mxPoint x="490" y="-1" as="targetPoint" />
          </mxGeometry>
        </mxCell>
        <mxCell id="AFC2cKUzQ8DKhsSuThv8-15" value="&lt;b&gt;Filter&lt;br&gt;str == A&lt;/b&gt;" style="triangle;whiteSpace=wrap;html=1;sketch=1;hachureGap=4;jiggle=2;curveFitting=1;fontFamily=Architects Daughter;fontSource=https%3A%2F%2Ffonts.googleapis.com%2Fcss%3Ffamily%3DArchitects%2BDaughter;fontSize=20;" parent="1" vertex="1">
          <mxGeometry x="365" y="-43" width="95" height="83" as="geometry" />
        </mxCell>
        <mxCell id="AFC2cKUzQ8DKhsSuThv8-20" value="Mask&lt;br&gt;1&lt;br&gt;0&lt;br&gt;0" style="text;html=1;align=center;verticalAlign=middle;resizable=0;points=[];autosize=1;strokeColor=none;fillColor=none;fontSize=20;fontFamily=Architects Daughter;" parent="1" vertex="1">
          <mxGeometry x="510" y="-56.5" width="70" height="110" as="geometry" />
        </mxCell>
        <mxCell id="AFC2cKUzQ8DKhsSuThv8-23" value="Expanded Mask&lt;br&gt;1&lt;br&gt;0&lt;br&gt;0&lt;br&gt;1&lt;br&gt;0&lt;br&gt;0" style="text;html=1;strokeColor=none;fillColor=none;align=center;verticalAlign=middle;whiteSpace=wrap;rounded=0;fontSize=20;fontFamily=Architects Daughter;" parent="1" vertex="1">
          <mxGeometry x="515" y="178" width="60" height="30" as="geometry" />
        </mxCell>
        <mxCell id="AFC2cKUzQ8DKhsSuThv8-24" value="" style="endArrow=classic;html=1;rounded=0;sketch=1;hachureGap=4;jiggle=2;curveFitting=1;fontFamily=Architects Daughter;fontSource=https%3A%2F%2Ffonts.googleapis.com%2Fcss%3Ffamily%3DArchitects%2BDaughter;fontSize=16;exitX=0.52;exitY=1.021;exitDx=0;exitDy=0;exitPerimeter=0;" parent="1" source="AFC2cKUzQ8DKhsSuThv8-20" edge="1">
          <mxGeometry width="50" height="50" relative="1" as="geometry">
            <mxPoint x="400" y="110" as="sourcePoint" />
            <mxPoint x="546" y="90" as="targetPoint" />
          </mxGeometry>
        </mxCell>
        <mxCell id="AFC2cKUzQ8DKhsSuThv8-30" value="Extract Filter Column:&lt;br&gt;&amp;nbsp; &amp;nbsp;&lt;br&gt;&amp;nbsp; for (dicVector&amp;nbsp; : DictionaryIDs : + SPECIES , maskVector : ExpandedMask : + SPECIES) {&lt;br&gt;&amp;nbsp; &amp;nbsp; &amp;nbsp; outputVec = gather (Dictionary, dicVector, maskVector)&amp;nbsp; &lt;font color=&quot;#33ff33&quot;&gt;// With mask we may save accessing few memory locations which will anyways be filtered out.&lt;/font&gt;&lt;br&gt;&amp;nbsp; &amp;nbsp; &amp;nbsp; filteredVector += compress (outputVec, maskVector)&lt;br&gt;&amp;nbsp; }" style="text;whiteSpace=wrap;html=1;fontSize=20;fontFamily=Architects Daughter;fontStyle=1" parent="1" vertex="1">
          <mxGeometry x="10" y="313" width="870" height="220" as="geometry" />
        </mxCell>
        <mxCell id="q0M4WOf1g3C3PY8d82Ov-1" value="Spark Optimization:-&#xa;&#xa;&#xa;A) Data gathing:-&#xa;&#xa;&#xa;  SSB (Star Schema Benchmark)&#xa;    -&gt; Specification for various tables schemas.&#xa;    -&gt; Data population utilities.&#xa;  1) Various Databases can create tables based on SSB specifications.&#xa;   -&gt; Table populations based on datagen utility.&#xa;  2) We are using clickhouse and open source DB for populating SSB tables.&#xa;   -&gt; Populated data base is dumped into parquet columnar storage format.&#xa;&#xa;&#xa;B) Spark SQL&#xa;   -&gt; Data source : Parquet based&#xa;       -&gt; Data is encoded using Dictionary encoding.&#xa;           -&gt; Dictionary IDs (integers) are encoded using REL-hybrid incodeing which uses optimized bit-packing algorithms.&#xa;   -&gt; Predicate pushdowing &#xa;   -&gt; Spark string query optimization." style="text;whiteSpace=wrap;fontStyle=1;fontSize=15;fillColor=#f5f5f5;fontColor=#333333;strokeColor=#666666;" vertex="1" parent="1">
          <mxGeometry x="10" y="540" width="900" height="450" as="geometry" />
        </mxCell>
      </root>
    </mxGraphModel>
  </diagram>
</mxfile>
